<svg xmlns="http://www.w3.org/2000/svg" viewBox="0 0 1116.31 646.28"><defs><style>.cls-1{fill:#fff;}</style></defs><title>dd</title><g id="Layer_2" data-name="Layer 2"><g id="Layer_1-2" data-name="Layer 1"><path class="cls-1" d="M237.45,486.05v-88c-.92.29-1.91.31-2.46.82-7.49,6.95-16.83,9.77-26.45,12a12.92,12.92,0,0,1-2.83.12c-22.83,0-45.68.65-68.48-.2-21.05-.79-42.08-.22-63.12-.53a59.59,59.59,0,0,1-22.25-5,64.28,64.28,0,0,1-37.92-43.33,78.41,78.41,0,0,1-2.46-21.11q.16-56.73,0-113.46c0-4.56-.57-9.11-.91-13.67-.18-2.4-.61-4.8-.62-7.2q-.06-68.69,0-137.37a23.09,23.09,0,0,1,.78-6c1-3.52,3.45-5.36,7.1-5.55,1.21-.06,2.43,0,3.65,0H158.24c.32-1.52.58-2.67.79-3.83A59.09,59.09,0,0,1,169.34,29,56.56,56.56,0,0,1,204.56,6.46a33,33,0,0,1,6-.73c16.86-.32,33.75,0,50.56-1,13.36-.8,26.69-.27,40-.73,13.75-.47,27.51-.57,41.26-.84,10.52-.21,21-.39,31.55-.63q18.4-.42,36.79-.93c7-.2,14-.06,21-.92a42.31,42.31,0,0,1,15.55.92A43.18,43.18,0,0,1,471.11,16.3c4.35,5.25,6.87,11.17,8.76,17.49,2.62,8.73,5.1,17.5,7.65,26.25,3.78,13,7.54,26,11.37,39,2.47,8.36,5.11,16.66,7.57,25,3.71,12.6,7.28,25.24,11,37.84,2.54,8.61,5.25,17.18,7.81,25.78,3.06,10.28,6.06,20.58,9.08,30.87q3.45,11.77,6.88,23.54L553,282.59c1.43,4.89,3.06,9.74,4.24,14.69a50.83,50.83,0,0,1,1.49,10.67c.14,6.63-1.58,13-4,19.1-1.4,3.46-3.42,6.67-4.89,10.11a7.28,7.28,0,0,0-.54,4.58c2.55,8.19,5.34,16.31,8.09,24.43A17.41,17.41,0,0,0,559,368.8a22,22,0,0,0,1.91-3.32c2.68-7.87,5.25-15.78,7.94-23.65a5.4,5.4,0,0,0-.7-5c-4.3-6.63-6.43-14-8.05-21.66-1.56-7.42-.47-14.44,1.52-21.41,3.82-13.43,8-26.76,11.95-40.16,4.31-14.68,8.47-29.42,12.77-44.1,3.67-12.5,7.5-25,11.17-37.46,4.39-14.94,8.67-29.92,13.05-44.86,2.34-8,4.83-15.93,7.19-23.91,4.11-13.91,8.13-27.84,12.24-41.74,3.12-10.56,6.14-21.16,9.53-31.64,4.83-14.91,15.38-24,30.23-28.13C675,.29,680.49-.8,686.05.76a6.56,6.56,0,0,0,1.61.07q23.05.43,46.1.87,18.4.38,36.79.84c9.57.23,19.14.57,28.7.74,17.27.32,34.56,0,51.79,1,13.36.77,26.69.24,40,.66,6.32.2,12.71,0,18.95.92a64.17,64.17,0,0,1,15.06,4.3,52.74,52.74,0,0,1,17.33,11.6,58.46,58.46,0,0,1,16.64,32.87c.41,2.54.69,2.84,3.38,3,1.08,0,2.16,0,3.24,0h129.67c.95,0,1.89,0,2.84,0,6.38-.33,9.08,2.59,10,9.53a16.27,16.27,0,0,1,0,2q0,69.29-.06,138.59c0,4.12-.86,8.24-1.27,12.37-.17,1.74-.29,3.49-.29,5.24q0,60,0,119.95c0,8.17-2,15.9-4.77,23.49a61.14,61.14,0,0,1-14.89,22.71,66.36,66.36,0,0,1-34.11,17.85,49.06,49.06,0,0,1-9.21.85q-57.08.47-114.16.81c-5,0-10,.16-15,0A50.39,50.39,0,0,1,884,399.77c-.86-.69-1.81-1.26-3.3-2.29v88.57H886q108.4,0,216.8,0a25.25,25.25,0,0,1,9.5,1.53,5.83,5.83,0,0,1,3.91,5.13,21.79,21.79,0,0,1,0,2.83q0,70.51,0,141a22.65,22.65,0,0,1-.09,3.64,7.56,7.56,0,0,1-6.41,5.9,39.69,39.69,0,0,1-4.86.17q-546.64,0-1093.28,0c-3.44,0-6.69-.06-9.31-2.87a6.59,6.59,0,0,1-2.16-4.55c0-1.08,0-2.16,0-3.24,0-46.47.13-92.93-.16-139.4,0-6.16,4.33-10.87,10.42-10.22a76.5,76.5,0,0,0,8.1,0H237.45ZM583.32,349.71c-.59.63-.87.8-.94,1-4.67,13.71-9.27,27.43-14,41.11a8.27,8.27,0,0,0,.33,5.79q11.12,32.4,22.18,64.82c2.42,7.09,4.76,14.2,7.08,21.16,7.94.92,263.08.53,266.21-.45v-4.32q0-32.82,0-65.65,0-23.5,0-47c0-2.05-.11-4.16,1.39-5.74,1.76-1.85,1.83-4,1.83-6.35q0-71.52,0-143c0-1.35,0-2.7,0-4.05.07-2.5,1.55-4,3.71-4.8a6.78,6.78,0,0,1,9.29,5.93c.1,1.21,0,2.43,0,3.65q0,74.56,0,149.12c0,11,5.27,19.61,13.59,26.34,7.4,6,16.09,8.52,25.59,8.23,4.17-.13,8.32-.59,12.49-.61,20.94-.1,41.87-.23,62.81,0,5.48.05,10.52-.85,15-3.89a67.1,67.1,0,0,0,9.66-7.88,32.93,32.93,0,0,0,9.93-24q.08-81.65,0-163.31a92.08,92.08,0,0,1,1.63-18.41c4-19.89,14.35-35.47,31.64-46.27,2.34-1.46,4.76-2.78,7.74-4.51a65.56,65.56,0,0,1-25.81-21.74,73.52,73.52,0,0,1-12-30.83c-1.64-.08-2.84-.18-4-.18H954.92c-1.22,0-2.44.07-3.65,0-3.92-.31-6.1-2.12-6.88-6.05-.47-2.35-.45-4.79-.79-7.17a56.18,56.18,0,0,0-1.58-9c-5.91-18.62-20.76-29.82-40.18-30.34-13.88-.37-27.76-.56-41.64-.83L821,19.6c-13.88-.27-27.77-.6-41.65-.79-9.59-.13-19.18-.09-28.77-.1-1.17,0-2.35.15-3.68.23,0,2.79-.17,5.33,0,7.85.34,4.27,1,8.51,1.38,12.77s.5,8.31.91,12.45c.71,7.19,1.66,14.37,2.31,21.56.68,7.48,1.12,15,1.69,22.48.24,3.07.51,6.14.84,9.2.76,7.05,1.68,14.09,2.33,21.15.69,7.48,1.12,15,1.7,22.48q.37,4.81.88,9.6c.76,7.19,1.65,14.36,2.31,21.56s1.11,14.45,1.68,21.67c.25,3.2.56,6.4.9,9.6.47,4.52,1.07,9,1.48,13.57.39,4.28.57,8.57.91,12.86.25,3.21.58,6.41.91,9.61.46,4.39,1,8.77,1.43,13.16.37,4,.49,8,.89,12,.71,7.2,1.65,14.37,2.31,21.57.68,7.48,1.13,15,1.71,22.46.25,3.21.52,6.42.86,9.61.47,4.39,1.11,8.76,1.52,13.16.39,4.14.55,8.31.87,12.46.25,3.21.56,6.41.9,9.61.45,4.25,1.43,8.52,1.32,12.75a65.64,65.64,0,0,1-2,14.26c-5.42,21.35-23.78,36.43-46.11,38.67-11.56,1.16-22.41-1.79-32.39-7.85q-20.55-12.48-41.15-24.87c-12.57-7.56-25.19-15-37.75-22.61C607.49,364.47,595.45,357.09,583.32,349.71Zm-212-331c-2.19,0-3.8,0-5.41,0q-20.22.39-40.44.8c-11.32.23-22.64.5-34,.73-14.69.3-29.38.63-44.08.83-10.13.14-20.27-.19-30.38.23-5.55.23-11.1.75-16.53,2.88C186.62,29.63,174,45.85,174.43,61.69a24,24,0,0,1,0,3.24c-.72,6.69-3.21,8.91-10,8.92H164l-74.15,0H85.41a75.09,75.09,0,0,1-12,30.91c-6.49,9.47-15.15,16.49-25.91,21.93,1.79,1,3,1.58,4.07,2.31,4.55,3.09,9.5,5.77,13.53,9.44,15.67,14.28,23.3,32.41,23.37,53.45.19,55.78.06,111.57.08,167.35a30.52,30.52,0,0,0,.41,5.2c1.62,9.31,6.44,16.79,13.59,22.75,4.69,3.91,9.84,7.4,16.2,7.5,26.58.39,53.17.53,79.75.84,9.51.11,18.19-2.36,25.58-8.35,8.32-6.74,13.53-15.37,13.55-26.39q.1-74.56,0-149.12a25.08,25.08,0,0,1,.07-4c.38-2.3,1.14-4.26,3.76-5.22,5.21-1.91,10.16,1.49,9.24,6.38a20.12,20.12,0,0,0,0,3.64q0,70.51,0,141a30.16,30.16,0,0,0,0,3.24,4,4,0,0,0,.7,2.23c2.51,2.6,2.49,5.77,2.48,9.06q-.07,55.51,0,111c0,1.56.13,3.12.2,4.79H519.91c.26-.62.48-1.09.65-1.58,3.24-9.4,6.5-18.8,9.69-28.22,6.35-18.72,12.63-37.46,19-56.15a9.8,9.8,0,0,0,0-7c-3.13-8.71-6.09-17.48-9.09-26.24-1.68-4.92-3.32-9.85-5.06-15-3.25,1.9-6.15,3.54-9,5.26q-26.41,16-52.8,32c-17.75,10.7-35.59,21.23-53.28,32-11.61,7.09-24,10-37.42,7.59a51.58,51.58,0,0,1-24.34-11.08c-9.78-8.09-16.09-18.37-18.26-30.94a64.62,64.62,0,0,1-.94-12.4c.1-4.26,1-8.49,1.41-12.75.64-7.22,1.12-14.46,1.7-21.68q.39-4.81.91-9.61c.46-4.26,1.05-8.5,1.44-12.76s.59-8.84.93-13.26c.25-3.21.57-6.42.9-9.62.47-4.53,1-9.05,1.44-13.58.36-4,.49-8,.89-12,.7-7.06,1.64-14.1,2.28-21.17.7-7.62,1.16-15.25,1.75-22.88q.38-4.81.89-9.61c.46-4.26,1.06-8.5,1.46-12.76s.57-8.31.89-12.46c.25-3.21.56-6.42.87-9.62.49-5.07,1-10.13,1.51-15.19.35-3.74.54-7.49.92-11.23.73-7.2,1.59-14.39,2.28-21.59.41-4.27.59-8.57.91-12.85.24-3.21.49-6.42.85-9.62.45-4,1.11-8,1.48-11.95.41-4.41.57-8.85.89-13.27.25-3.48.54-7,.9-10.43.46-4.53,1.06-9,1.48-13.57.38-4,.52-8,.92-12,.71-7.2,1.58-14.38,2.29-21.58C371.5,23,371.35,21.12,371.35,18.7ZM1100.69,502H17.43V630.33H1100.69Zm-367.87-484c-12.15-.33-23.59-.6-35-1-4.56-.15-9.11-.56-13.66-.74a31.32,31.32,0,0,0-7.67.16C665,19,657.14,25.64,653.77,37c-5.65,19.12-11.09,38.3-16.71,57.43-6.26,21.31-12.64,42.59-18.93,63.89-6.18,20.93-12.29,41.88-18.48,62.8q-11,37.16-22.09,74.28c-2.32,7.77-2.9,15.5-.38,23.36,2.73,8.49,7.45,15.5,14.88,20.49,4.47,3,9.15,5.68,13.76,8.46l63,38c12.91,7.79,25.74,15.72,38.75,23.35a35.29,35.29,0,0,0,17.66,5.05c13.06.06,23.77-5.34,32-15.35,4.52-5.49,7.75-11.86,7.94-19.06.2-7.65-.43-15.32-.8-23-.14-2.94-.51-5.88-.82-8.81-.76-7.18-1.6-14.36-2.29-21.55-.42-4.41-.59-8.83-.93-13.25-.26-3.34-.6-6.68-.94-10-.45-4.39-1-8.78-1.39-13.18-.37-4-.52-8-.92-12-.72-7.33-1.64-14.63-2.31-22s-1.12-14.72-1.7-22.07c-.25-3.2-.56-6.41-.88-9.6-.49-4.93-1.05-9.84-1.52-14.77-.35-3.74-.54-7.5-.92-11.24-.72-7.05-1.6-14.09-2.28-21.15-.42-4.41-.53-8.84-.86-13.26-.26-3.48-.59-6.95-1-10.41-.73-6.92-1.57-13.84-2.24-20.77-.41-4.27-.56-8.56-.88-12.84-.25-3.34-.54-6.68-.89-10-.46-4.39-1.09-8.77-1.49-13.17s-.55-8.57-.88-12.86c-.22-2.94-.53-5.87-.85-8.8-.48-4.39-1.09-8.76-1.49-13.15s-.6-8.84-.95-13.25c-.25-3.21-.58-6.41-.9-9.61q-.7-7-1.44-14C733.43,22.74,733.13,20.52,732.82,18.06Zm-347.69.28c-.51,4.64-1.1,9.26-1.52,13.9-.4,4.41-.51,8.84-.94,13.25-.7,7.2-1.65,14.37-2.31,21.57s-1.1,14.44-1.66,21.65q-.39,5-.92,10c-.46,4.39-1.06,8.77-1.45,13.17s-.59,8.84-.91,13.25c-.23,3.07-.49,6.14-.83,9.21-.74,6.78-1.66,13.54-2.28,20.33-.7,7.61-1.15,15.24-1.74,22.87-.25,3.21-.52,6.41-.85,9.61-.75,7.19-1.59,14.36-2.29,21.55-.4,4.14-.57,8.3-.89,12.45-.26,3.34-.54,6.68-.9,10-.45,4.25-1.08,8.48-1.47,12.74-.41,4.41-.59,8.84-.93,13.25q-.37,4.81-.88,9.62c-.46,4.25-1.07,8.49-1.46,12.75s-.53,8.3-.86,12.44c-.25,3.21-.58,6.41-.91,9.6-.48,4.66-1,9.31-1.45,14-.37,4.14-.55,8.31-.93,12.45q-1.11,12.19-2.37,24.37c-.42,4.12-1.21,8.23-1.37,12.36-.22,5.92-.85,12,.18,17.76,1.86,10.34,7.66,18.6,16.47,24.49,13.16,8.81,27,9.85,40.76,2,16.61-9.5,32.76-19.8,49.14-29.7,21.24-12.82,42.46-25.68,63.8-38.33,10.45-6.2,16.35-15.5,18.77-27a34.6,34.6,0,0,0-.29-12.84c-.89-5-2.79-9.78-4.21-14.68-4.4-15.18-8.73-30.38-13.19-45.54-3.37-11.45-7-22.82-10.36-34.27-4.48-15.16-8.81-30.36-13.25-45.53q-5.53-18.9-11.16-37.76-6.79-22.93-13.59-45.86c-3.9-13.24-7.81-26.47-11.56-39.75-3.69-13.1-15.13-21.88-28.3-21.4-6,.22-12.08.59-18.13.78-10.5.33-21,.57-31.51.86A10.61,10.61,0,0,0,385.14,18.34ZM26.41,134.59c-.1,1.39-.25,2.44-.25,3.5q0,36.44,0,72.88a35.54,35.54,0,0,0,.31,3.6c.41,4,.8,8,1.27,12A46.79,46.79,0,0,0,29,234.84a107.11,107.11,0,0,0,42,57.59c1.24.86,2.35,2.2,4.48,1.94v-4.51q0-47,0-93.94a85.59,85.59,0,0,0-.92-13.64A58.19,58.19,0,0,0,30.53,135,27.8,27.8,0,0,0,26.41,134.59Zm1065.53,0a27.38,27.38,0,0,0-4.19.35c-12.13,3.16-22.46,9.12-30.81,18.71-9.74,11.2-14.18,24.3-14.3,38.78-.26,33.06-.09,66.13-.07,99.2,0,1,.21,2,.36,3.37a96.91,96.91,0,0,0,17-13,105.89,105.89,0,0,0,24.52-34.79c3.29-7.48,6.63-15.07,5.87-23.62a12.3,12.3,0,0,1,.3-2.39c.44-3.85,1.23-7.71,1.25-11.57.12-23.35.06-46.7.06-70C1091.94,138.08,1091.94,136.61,1091.94,134.56ZM28.46,266.87l-.7.2v4.43c0,24.31.13,48.62-.07,72.93a46.8,46.8,0,0,0,6.95,25.69,50.74,50.74,0,0,0,24.1,20.74,57.63,57.63,0,0,0,16.41,3.76c4.61.47,9.31.1,14,.1-.07-.79,0-1.11-.13-1.29-1.06-1.4-2.19-2.74-3.23-4.15-6.27-8.54-10.27-17.89-10.25-28.69,0-15.4-.05-30.79.06-46.19,0-2.59-.65-4.1-3.06-5.38-14.74-7.85-26.79-18.87-36.91-32.07C33.14,273.67,30.85,270.23,28.46,266.87Zm1014.1,43.91c0,1.71,0,3.19,0,4.67q0,22.87,0,45.74a25,25,0,0,1-.17,4.44c-1.72,9.4-5.27,18-11.51,25.34-.83,1-1.48,2.09-2.65,3.76,4.93,0,9.21.22,13.45-.06a57.69,57.69,0,0,0,16.11-3.22,49.61,49.61,0,0,0,20.06-13.91c7.72-8.61,12.34-18.61,12.41-30.26.16-25.64.05-51.27,0-76.91,0-1.15-.1-2.29-.16-3.44C1077.72,285.5,1062.23,300.39,1042.56,310.78Zm-461.44,173c-.2-.73-.37-1.47-.62-2.19Q576,468.29,571.44,455q-5.53-16.15-11.13-32.28a20.77,20.77,0,0,0-1.77-2.9L536.73,483.9C541.05,484.88,577.93,484.76,581.12,483.78ZM1046.93,74c-1.68,18.18,27.53,47.27,45,44.68-.1-14.84.15-29.74-.15-44.68ZM26.43,74c-.76,8.24-.46,42.24.36,45.11C50.77,116.61,71,91.84,71,74Z"/><path class="cls-1" d="M893.41,67.67c0,2,0,4.05,0,6.08a15.25,15.25,0,0,1-12.58,14.69,22.93,22.93,0,0,1-9.94.08c-7.36-1.83-12.05-6.36-12.94-13.7-.63-5.26-.06-10.74.58-16,.72-6,5-9.53,10.33-11.32a20.57,20.57,0,0,1,16.84,1.28c4.77,2.59,7.16,6.79,7.67,12.07.22,2.27,0,4.59,0,6.88Z"/><path class="cls-1" d="M224.63,67.19c0-1.76,0-3.51,0-5.27.1-7.73,5.14-13.45,12.67-15a26.06,26.06,0,0,1,10.79.2,15.91,15.91,0,0,1,12.11,14c.41,5.17.74,10.44-.53,15.67A14.78,14.78,0,0,1,253,86.05a20.16,20.16,0,0,1-22.12-.28,13.92,13.92,0,0,1-6.21-11.28c-.13-2.42,0-4.86,0-7.29Z"/><path class="cls-1" d="M887,553c.48,12.07.08,24.18,1.44,36.39,2.49.28,4.62.54,6.76.76,1.52.16,3.35.33,3.63,2a22.3,22.3,0,0,1-.17,6.34c-.05.41-1.31.86-2,.94a34.25,34.25,0,0,1-4,0l-20.23-.19c-.94,0-1.89,0-2.83,0a2.88,2.88,0,0,1-3-3.12c0-.94,0-1.89,0-2.83a2.77,2.77,0,0,1,3-3c2.26,0,4.52,0,7.1,0,.21-3.79.52-7,.54-10.22.06-10.53.08-21.07,0-31.6-.08-8-.31-10-9.45-11.56a18.47,18.47,0,0,1-3.28-1.1l-8.49,2.07c0,2.94-.08,5.88,0,8.82.21,6.48.65,13,.73,19.43a133.5,133.5,0,0,1-.53,14.56c-.75,7.7-5.39,12.78-12,16.14-7.2,3.65-15,4.39-22.89,3.76a44,44,0,0,1-8.36-1.46c-10.34-2.9-15.81-9.67-16.6-20.43-.25-3.36-.26-6.75-.29-10.12-.07-8.51-.07-17-.14-25.52,0-1.6-.24-3.2-.4-5.19-2.09-.27-4-.55-6-.78-3.17-.37-3.76-1.24-3.64-5.41.09-3,.71-3.57,4-3.69.54,0,1.08,0,1.62,0l29.15.06c4.06,0,6.3,3.84,4.2,7.44a4.09,4.09,0,0,1-2.62,1.48c-2.23.4-4.52.51-7,.77-.1,1.36-.28,2.54-.26,3.73q.35,17.82.77,35.63c0,.67,0,1.35.12,2,.79,6.84,4.74,10.89,11.65,11.18a32.28,32.28,0,0,0,10-1.23c5.94-1.68,8.54-6.33,9-12.16a89.33,89.33,0,0,0,.16-11.33c-.38-8.5-.9-17-1.49-25.47-.2-2.91-.6-3.11-3.52-3.22-.54,0-1.08,0-1.62,0-4.58,0-5.18-.64-4.94-5.14.18-3.4.57-3.79,4.22-3.81,7,0,14,.18,21.05-.1,1.88-.08,3,2.06,5.19.91,1.42-.75,3.39-.54,5.12-.57,5.4-.11,10.81,0,16.2-.22a7.64,7.64,0,0,1,6.14,2.37q16.76,16.76,33.64,33.4c2.77,2.74,5.55,5.46,8.41,8.28,1-3.46.43-18.87-1.22-33.49-2-.51-4.18-1-6.34-1.61-1.83-.49-3.07-1.38-3.15-3.6-.13-3.88.5-4.87,4.49-5,7.15-.28,14.31-.4,21.47-.5,3,0,3.45.35,4,2.87.62,3,.17,4.33-2.17,5.38-1.46.66-3.09.94-4.61,1.49a22.31,22.31,0,0,0-2.47,1.23c0,4.45-.1,8.77,0,13.07.39,14.58.87,29.15,1.27,43.73.12,4.49-.33,4.76-4.68,5.18a8.87,8.87,0,0,1-7.82-3C919.82,583.71,905.86,570,892,556.19c-1.31-1.3-2.75-2.47-4.13-3.7Z"/><path class="cls-1" d="M642.54,537.45v19.73a269.07,269.07,0,0,0,30.35-.1c0-6.06,0-12,0-17.84,0-1.5-1-2.09-2.25-2.43-1.82-.49-3.64-1-5.46-1.51-2.24-.61-2.35-2.26-2.15-4.15s.65-3.62,2.88-3.76,4.58,0,6.87,0q10.29,0,20.59-.09c1.62,0,3.24-.16,4.85-.05,2.59.17,3.54.9,3.55,3,0,4-.55,5.5-2.89,5.87-2.11.33-4.17,1-6.5,1.57v50.21c2.09.65,4.13,1.21,6.11,1.93,2.67,1,4.2,5.45,2.55,7.68a3.61,3.61,0,0,1-2.41,1.12c-1.88.14-3.77,0-5.66,0l-24.28-.09c-.54,0-1.08.07-1.62.07-3.11,0-4.23-.73-4.53-2.87-.46-3.24.58-5.11,3.44-5.86,2.08-.54,4.21-.91,6.69-1.44V568.26H642.52v20.3c2.12.42,4.36.75,6.53,1.31,2.93.75,3.73,2,3.61,4.95s-.94,3.76-3.94,3.89c-1.48.07-3,0-4.45,0l-23.07-.06a43.07,43.07,0,0,1-5.25-.07,3.17,3.17,0,0,1-2.15-1.46,5.12,5.12,0,0,1,3.81-7.23c1.7-.36,3.4-.65,5.63-1.07.68-17.08.37-34,.3-51.34-2.23-.37-4.2-.62-6.13-1a4.79,4.79,0,0,1-3.21-7.36,4.11,4.11,0,0,1,2.64-1.53,22.49,22.49,0,0,1,5.64-.19,102.7,102.7,0,0,0,23.83,0,9.38,9.38,0,0,1,1.62,0c4.15.2,5.29,1.6,4.69,5.61a3.25,3.25,0,0,1-3,3.18C647.31,536.49,645.08,537,642.54,537.45Z"/><path class="cls-1" d="M965.38,538.67c-2.71.25-5,.54-7.26.64-2.49.11-3-.45-3.28-3a22.09,22.09,0,0,1-.08-2.43c0-2.92.4-3.65,3.26-4.23,4.89-1,9.81-2.16,14.76-2.39a247.55,247.55,0,0,1,27.1-.17c26.88,1.7,41.43,28.13,31.43,51.76-4.94,11.68-14.34,18.47-27.15,19.54-6.16.51-12.4-.07-18.6,0-8.37.06-16.74.21-25.1.39-5.2.11-6.87-1.83-5.45-6.85a4.51,4.51,0,0,1,2.45-2.25,21.76,21.76,0,0,1,3.94-.86c3.73-.87,3.95-1.11,4.08-4.8.1-2.7.12-5.4.13-8.1q0-16.81,0-33.62C965.57,541.24,965.46,540.18,965.38,538.67Zm19.26-1.44c-.08.84-.21,1.5-.21,2.15q.05,13.37.14,26.73c0,4.86-.09,9.72.21,14.57s2.23,7,6.75,7.77c9.85,1.73,18.32-2.36,21-12.44a45.34,45.34,0,0,0,.69-21.66c-1.93-8.69-6.79-14.94-15.74-17.25A23.35,23.35,0,0,0,984.64,537.23Z"/><path class="cls-1" d="M47.51,538.69c-2.68.24-4.94.53-7.21.63-2.47.11-3.16-.54-3.42-2.89a17,17,0,0,1,0-2c0-3.56.32-4.11,4-4.85,4.75-.95,9.54-2.06,14.35-2.27a253.6,253.6,0,0,1,26.67-.16c26.59,1.61,41.52,27.28,31.68,51.57-4.76,11.74-14.19,18.65-27,19.7-7.49.62-15.08,0-22.63,0s-14.83.28-22.25.4c-1.58,0-3.71.52-4.21-1.41a16,16,0,0,1-.06-6.28c.1-.64,1.62-1.23,2.59-1.54a34,34,0,0,1,4.35-.9c2.18-.39,3.18-1.59,3.18-3.89,0-4.31.32-8.63.33-12.94,0-10.25-.05-20.5-.11-30.75C47.77,540.45,47.64,539.79,47.51,538.69Zm19.35-1.49c-.06,1.24-.17,2.3-.16,3.36q0,14.17.08,28.35c0,3.78-.12,7.56,0,11.34.22,4.78,2,7.14,6.43,8.09,9.63,2.07,18.47-2.08,21.14-11.47a45.39,45.39,0,0,0,.56-24c-2.05-8-7-13.59-15.26-15.74A23.79,23.79,0,0,0,66.86,537.2Z"/><path class="cls-1" d="M129.49,538.69c-2.47.22-4.59.46-6.72.59-3.15.18-3.74-.38-4-3.59,0-.27,0-.54,0-.81-.08-3.87.28-4.57,4-5.32a95.42,95.42,0,0,1,14.37-2.28c8.89-.4,17.82-.64,26.7-.17,21.47,1.12,36.44,18.88,34.45,40.33C196.82,583.11,186.69,595,172,598a52.57,52.57,0,0,1-10.07.85c-12.55.07-25.11,0-37.66,0-.81,0-1.62.07-2.43,0a2.68,2.68,0,0,1-2.87-2.75c-.08-1.08-.1-2.16-.1-3.24a3,3,0,0,1,2.52-3.19c.26-.06.53-.1.8-.15,8-1.59,7.31-.64,7.45-9,.2-12.69.1-25.39.1-38.08C129.74,541.25,129.59,540.08,129.49,538.69Zm19.34-1.35a21.56,21.56,0,0,0-.22,2.27q0,19.65.07,39.29a25.31,25.31,0,0,0,.24,2.82,6.92,6.92,0,0,0,5.41,6.33c9.2,2.58,19-1.21,21.87-10.72a44.88,44.88,0,0,0,.93-23.59C174,540.4,162.39,533.66,148.83,537.35Z"/><path class="cls-1" d="M541.32,538.68c-2.75.25-5,.47-7.3.67-2,.17-3.08-.71-3.17-2.74q0-1-.05-2c0-3.7.25-4.3,3.78-5,4.75-1,9.55-2.07,14.37-2.29a265.6,265.6,0,0,1,26.7-.18c25.76,1.42,41.31,26,32.27,50.42-4.64,12.52-14.36,19.83-27.85,20.9-7.37.58-14.83-.06-22.25,0s-14.85.28-22.27.41c-1.59,0-3.72.48-4.2-1.44a17.42,17.42,0,0,1,0-6.34c.07-.57,1.4-1.13,2.24-1.4,1.28-.41,2.64-.52,4-.83,3.59-.86,3.9-1.14,3.95-4.92.12-9.59.16-19.17.2-28.76,0-4.73,0-9.45-.08-14.18A20.32,20.32,0,0,0,541.32,538.68Zm19.37-1.26c-.06,1-.18,2-.18,3.08q0,12.55.07,25.11c0,5.12-.08,10.26.27,15.37.32,4.62,2.48,6.83,7,7.54,10.07,1.58,18.23-2.78,20.76-12.8a47.32,47.32,0,0,0,.74-20.87C586.66,540.94,574.3,533.36,560.69,537.42Z"/><path class="cls-1" d="M284.11,559c.67.45,1,.69,1.33.9,6.79,4.16,10.43,10.07,9.75,18.17-.71,8.46-5.29,14.38-13,17.56-3.55,1.47-7.54,1.91-11.34,2.72a17.51,17.51,0,0,1-3.23.14l-33.56.74-.81,0c-4.72.09-6.74-3-4.7-7.28a4.51,4.51,0,0,1,1.71-1.57,5.17,5.17,0,0,1,1.56-.36c6-1.39,6.08-1.39,6.07-7.41,0-13.76-.17-27.52-.3-41.27,0-1.18-.22-2.36-.36-3.79-2-.27-3.9-.47-5.74-.77-2.67-.43-3.45-1.8-3.23-5.45.15-2.45.84-3.21,3.61-3.28,12.4-.33,24.81-.69,37.21-.82a28.22,28.22,0,0,1,13.22,3.29c11,5.65,12.55,20.62,3.16,27.18A15,15,0,0,0,284.11,559Zm-26.86,29.54c3.31,1.46,6.47,1.09,9.65.38,4.31-1,7.36-3.29,8.16-7.86.9-5.16.51-10-4-13.53a8.83,8.83,0,0,0-2.86-1.45,26.06,26.06,0,0,0-10.91-.71Zm0-32.58c3.2-.36,6.14-.39,8.93-1.08,4.29-1.07,6.06-3.66,6.29-8.23a8.54,8.54,0,0,0-5.64-8.86,15.88,15.88,0,0,0-9.77-.63c0,5.56,0,10.92,0,16.28C257.06,554,257.13,554.51,257.25,556Z"/><path class="cls-1" d="M745.06,526.38a43.11,43.11,0,0,1,15.85,2.68c22.64,8.61,30.26,37,15.25,56.49-7.17,9.33-16.9,13.62-28.32,14.18a58.63,58.63,0,0,1-14.86-1c-15.48-3.28-26.66-15.81-27.48-34.08-.95-21.09,14.31-37.23,35.92-38.27C742.63,526.33,743.85,526.38,745.06,526.38Zm17,37.46c0-2.16.15-4.33,0-6.48a29,29,0,0,0-3.9-13.07c-5.22-8.41-17.25-10.58-24.31-4.39A17.45,17.45,0,0,0,728.25,550,80.79,80.79,0,0,0,727,563.29,41.81,41.81,0,0,0,730.59,581a14.74,14.74,0,0,0,9.2,8.53c7.81,2.55,16.22-1.26,19.81-9.06C762,575.2,762.39,569.55,762,563.84Z"/><path class="cls-1" d="M406.86,526c3.56.57,7.76.91,11.77,1.95a35.45,35.45,0,0,1,26.55,34.55c-.05,17-11,31.71-26.83,35.78-9.6,2.47-19.31,2.6-28.68-.86-9.84-3.63-16.9-10.4-20.44-20.45-2.65-7.53-3.47-15.26-1.48-23.08,3.85-15.09,14.12-23.39,28.85-26.71C399.74,526.48,403,526.44,406.86,526Zm16.42,37.78c0-2.16.35-4.39-.08-6.46-.84-4.06-1.58-8.29-3.34-12-3.19-6.69-9.24-9.21-16.4-8.9-6.6.29-10.48,4.35-12.86,10.15a16.83,16.83,0,0,0-1,2.66c-2.46,11.09-2.23,22,2.61,32.49,2.68,5.78,7.57,8.67,14,8.5,7.38-.19,12.72-4.29,15.39-11.68A36,36,0,0,0,423.28,563.8Z"/><path class="cls-1" d="M489.81,526c3.39.53,7.45.86,11.34,1.82a35.14,35.14,0,0,1,27,34.14c.18,17.3-10.57,32.09-26.63,36.27-9.73,2.54-19.59,2.65-29.06-.91-9.65-3.63-16.61-10.32-20.11-20.26-3.2-9.09-3.64-18.27-.27-27.33,4.81-12.93,14.75-19.84,27.86-22.62C482.93,526.51,486.06,526.44,489.81,526Zm17.38,36.8-.55-.08c-.07-1.08-.16-2.16-.21-3.23a34.8,34.8,0,0,0-2.81-13c-3.24-7.08-9-10.22-16.56-10.11-7.18.11-11.24,4.49-13.65,10.8a19.88,19.88,0,0,0-.87,2.69c-2.45,10.85-1.95,21.51,2.69,31.7,2.64,5.8,7.47,8.76,13.92,8.66,7.74-.13,13.66-4.64,15.8-12.7C506.21,572.79,506.48,567.75,507.19,562.83Z"/><path class="cls-1" d="M1040.12,585.18q0-3.24,0-6.48c0-2,1-3,3-3,.94,0,1.9,0,2.83-.06a3.69,3.69,0,0,1,4.31,2.76,34.17,34.17,0,0,0,2.18,4.79,13.55,13.55,0,0,0,18.51,5.37c5.51-3,5.78-9.43.36-12.62a70.09,70.09,0,0,0-8.14-3.55c-4.46-1.91-9.16-3.39-13.33-5.8-12.43-7.18-14.14-24.67-3.61-34.37,3.83-3.54,8.51-5.17,13.55-5.78,6.83-.82,13.44.36,19.93,2.49a3.82,3.82,0,0,1,2.88,3.49c.44,4.42,1.05,8.84,1.22,13.28.12,3.16-1,4-4.2,4-4.24,0-4.81-.42-6.5-4.5a27,27,0,0,0-2.33-4.7,10.05,10.05,0,0,0-12.55-3.51c-4.22,2-5.28,6.75-1.91,10a20.36,20.36,0,0,0,6.16,3.7c4.22,1.78,8.65,3,12.83,4.91a32.32,32.32,0,0,1,7.13,4.52c10.23,8.33,7.78,28.1-2.32,34.48-8.92,5.64-18.13,6.34-28,4.24-2.76-.59-5.45-1.55-8.15-2.39a4.67,4.67,0,0,1-3.62-4.77c0-2.16,0-4.32,0-6.48Z"/><path class="cls-1" d="M308.58,588.23c.14-7.89.31-15.55.4-23.22q.12-10.73.09-21.46c0-4.89-.09-4.94-4.77-6.5-.77-.26-1.57-.4-2.32-.69-2.83-1.08-3.36-1.85-3.38-4.79,0-3.29,1-4.39,4.34-4.36,4.72,0,9.44.42,14.16.41,5.53,0,11.05-.33,16.58-.46,3.84-.09,5.67,2.23,4.9,6a4.22,4.22,0,0,1-3.45,3.52c-2.09.48-4.18.92-6.76,1.49V588.6c6.38.15,12.94.77,19.39-1.07,4.83-1.37,7.69-4.75,9.2-9.42.56-1.72,1.21-3.14,3.5-3.28,5.38-.33,6.45.51,6.2,6-.19,4.45-.56,8.89-1,13.32-.43,4.07-1.33,4.94-5.42,4.88-6.61-.1-13.21-.66-19.82-.65-12.68,0-25.36.26-38,.47-3.39.06-4.44-.5-4.75-3-.5-4,.41-5.73,3.66-6.42C303.5,589,305.77,588.7,308.58,588.23Z"/></g></g></svg>