<svg xmlns="http://www.w3.org/2000/svg" viewBox="0 0 1539.24 1046.46"><title>explode</title><path d="M557.06,778.15q30.45,6.54,60.91,13.09c12.48,2.69,25,5.28,37.41,8.23,6.74,1.59,10.75,7.62,9.05,14.39-2.26,9-5.35,17.82-8.25,26.65q-10.51,32-21.23,63.95a57.43,57.43,0,0,1-4.61,10.48c-4.64,8-9.12,9.32-17.8,5.27-6-2.81-11.91-5.92-17.78-9q-39-20.79-77.9-41.69A113.82,113.82,0,0,1,505.61,863c-6-4.19-7.33-11.26-3.58-17,11.85-18.27,23.57-36.63,35.57-54.8,3.06-4.64,7-8.72,10.47-13.06Z" fill="#00b1ff"/><path d="M275.7,304.78c2.92,1.59,6.55,2.54,8.65,4.87,12.13,13.46,23.91,27.24,35.79,40.94,2.62,3,5.13,6.13,7.7,9.18,7.49,8.88,7.18,16.42-1,24.32a44.56,44.56,0,0,1-4.82,4.34c-22.1,15.74-44.19,31.5-66.41,47.07-6.72,4.71-10.9,3.93-16.3-2.59-7.73-9.35-15.42-18.73-22.79-28.37-13.95-18.24-27.64-36.67-41.45-55-4.73-6.28-3.93-16.17,2.15-21.11,5.8-4.72,11.86-9.13,18-13.42,6.75-4.73,14.42-6.35,22.64-6.61,19.12-.6,38.23-1.6,57.34-2.44Z" fill="#00b1ff"/><path d="M847.5,435c-8.08-.47-14.39,1.8-18.81-3.58-1.66-2-3.49-4.91-3.32-7.26a95.69,95.69,0,0,1,3.16-19.52c4.56-15.81,9.76-31.44,14.63-47.17,2.31-7.44,7.77-11.13,14.8-13.47,12.31-4.1,24.45-8.71,36.77-12.77,22.86-7.53,45.74-15,68.73-22.09,5.7-1.76,11.51-1.28,15.81,4.25,5,6.46,4.65,13.54,1.92,20.31-7,17.29-14.43,34.36-21.77,51.5-4.31,10.07-8.83,20.05-13.07,30.15-2.06,4.9-5.24,7.57-10.72,8.31-21.45,2.87-42.84,6.18-64.28,9.08C862.66,433.88,853.87,434.39,847.5,435Z" fill="#00b1ff"/><path d="M1058.7,1046.44c-13,0-25.94,0-38.92,0-6.85,0-13-2-17.53-7.12-7.94-8.95-15.71-18.08-23-27.53-6.16-7.95-5.23-24.95,9.43-30.1,26.68-9.38,53.31-18.94,80.22-27.61,6.73-2.17,14.45-1.54,21.71-1.59,1.9,0,4.25,1.89,5.66,3.54,10.38,12.1,20.61,24.34,30.82,36.59,6,7.18,4.88,16,3.59,23.94-.68,4.19-6.21,7.82-10,11.21-2.94,2.64-6.61,4.46-9.87,6.77-8.9,6.29-18.46,10.45-29.67,10.1-7.48-.23-15,0-22.45,0Z" fill="#00b1ff"/><path d="M1183.25,232.7c-9.91-.82-12.41-.48-17-13.66-5.65-16.14-11.93-32.06-17.8-48.13a175.4,175.4,0,0,1-5.92-18.5c-1.72-7.08,1.32-13.32,6-18.24A141.91,141.91,0,0,1,1165,119.74c7.29-5.64,16.41-4.61,21.84,2.75,8.5,11.5,16.64,23.28,24.6,35.16,5.9,8.8,11.45,17.86,16.86,27,9.35,15.76,3.18,29.4-11.84,36.65a213.45,213.45,0,0,1-20.2,8.57C1192.1,231.34,1187.59,231.79,1183.25,232.7Z" fill="#00b1ff"/><path d="M672.18,613.29c-8.47,2.74-15.9-1.57-23.11-6.73q-15.58-11.15-31.18-22.28c-8.69-6.19-7.79-22.09,2.75-28.24,9.51-5.55,17.49-13.67,26.54-20.09a58,58,0,0,1,14.55-7.12c6.76-2.33,12.09.35,16.52,5.93,10.71,13.49,21.69,26.76,32.59,40.1,4.3,5.26,7.42,10.63,6.68,18.06-.65,6.55-4.15,10.23-9.31,13C697.28,611.95,685.54,614.34,672.18,613.29Z" fill="#00b1ff"/><path d="M967,157.16a15.06,15.06,0,0,1-13.85-4.8c-4.9-5.17-6-10.72-3.16-16.86a224,224,0,0,1,10.84-21.31c4.86-8.24,15.34-10.78,25.63-5.28,9,4.82,15.59,12.27,16.24,23.49a11,11,0,0,1-3.56,9.33C990.28,150.24,981.2,158.3,967,157.16Z" fill="#00b1ff"/><path d="M1511.85,701.47c-11.54-12.34-23.32-24.47-34.55-37.09-8.16-9.17-15.8-18.84-23.25-28.6-4.14-5.42-7.46-11.41-6.52-18.84.63-4.92,2.46-8.85,6.73-11.62,8.1-5.25,16.05-10.72,24.18-15.91,6-3.81,16.12-1.56,20.78,3.58,5.79,6.38,12.2,12.2,18.26,18.34,3.5,3.55,7.3,6.93,10.11,11s5.76,8.55,6.41,13.17c2.25,16,3.6,32.06,5.13,48.12.65,6.83-2.11,12.65-6.3,17.87Z" fill="#fb6c48"/><path d="M180.56,137.94c-2.52-15.94-4.3-32.16-7.74-47.76-4.17-18.92-9.61-37.38-14.74-55.92a17.75,17.75,0,0,0-11.17-12.44c-14.53-6-28.78-13.23-43.46-18.48C95.62.55,87.16.64,79,0c-1.5-.12-3.45,2.21-4.64,4Q50.59,40.19,27,76.54C19.59,88,12.09,99.32,4.69,110.79c-5.24,8.12-6.34,21.19-2,30.39C16.17,170,29.76,198.67,43.76,227c1.53,3.09,5.94,5.35,8.95,5.23a29.2,29.2,0,0,0,14.84-4.36c28.36-18.81,56.47-38.24,84.71-57.35,5.61-3.8,11.39-7.18,17.12-10.67C179.83,153.53,180,153.19,180.56,137.94Z" fill="#fb6c48"/><path d="M1326.66,324.58c-.37-9.86,5-15.67,12.18-20.8,16.64-11.88,33-24.17,49.69-35.94a122.91,122.91,0,0,1,20.9-12.24c5.93-2.61,12.13-.17,16.46,4.42,9.22,9.74,17.85,20,26.93,29.92,6.07,6.61,12.92,12.55,18.64,19.45a248.11,248.11,0,0,1,19.21,26.05c6.63,10.53.17,23.23-13.23,27.84q-28.09,9.65-56.11,19.5-13.42,4.7-26.75,9.65c-12.52,4.66-22.69-2.08-29.49-11.46-5.35-7.39-10.94-14.6-16.57-21.78-6.06-7.72-12.62-15.07-18.26-23.08C1328.07,333,1327.81,328.46,1326.66,324.58Z" fill="#fb6c48"/><path d="M740.51,393.94a23.13,23.13,0,0,1-15.46-8.74q-29.58-36.44-58.89-73.11c-1.87-2.32-4.2-4.47-5.36-7.12-4.1-9.34.35-17.94,10.7-20.6,16.92-4.35,33.93-8.33,50.86-12.63,30.43-7.72,61-15.1,91.17-23.61,9.31-2.62,19.48,6.75,19.16,13.85-.23,5.09-3.33,10.39-6.17,15-8.23,13.25-17.12,26.1-25.5,39.27-14.19,22.3-28.07,44.79-42.33,67C754.51,389.79,747.82,392.8,740.51,393.94Z" fill="#fb6c48"/><path d="M1029.53,420.67c-9.06.47-15.37-3.39-18.7-11.55-1.17-2.86-1.87-6.63-1-9.48q6.68-22.71,14.42-45.1a18.76,18.76,0,0,1,6.3-8.65q23.67-17,47.87-33.28c8.39-5.65,17.46-5.73,26.41-1a9.25,9.25,0,0,1,3.69,3.71q13.12,25.47,26,51.07c5.25,10.41,1.06,20.74-10.1,24.45-23.66,7.87-47.4,15.53-71.07,23.34-4.41,1.46-8.63,3.54-13.09,4.82C1036.77,420,1033.1,420.14,1029.53,420.67Z" fill="#fb6c48"/><path d="M1326.06,780.11c2.82,14.12-4.91,23.92-16.45,32-10.2,7.16-19.92,15-30.2,22.07-12.16,8.35-26.21,11.92-40.55,14.15a162.42,162.42,0,0,1-21.85,1.94c-11.88.22-16.53-5.25-15.59-17.09,1-12.27,6.44-22.87,11.86-33.57,4-7.85,7.53-15.92,11.13-23.95,2.94-6.56,8.23-9.86,15-11,15.77-2.54,31.57-4.87,47.34-7.38,5.91-.94,11.76-2.21,17.66-3.15a44.06,44.06,0,0,1,8.9-.72c7.14.33,11.93,4.64,12.64,11.69C1326.44,769.78,1326.06,774.47,1326.06,780.11Z" fill="#fb6c48"/><path d="M333.22,608.57c.85-12.38,1.17-22.72,2.39-32.95,1-8.66,5.65-13.86,12-14.84,8.62-1.33,15.78.4,21.37,8.19,13.11,18.25,26.88,36,40.15,54.14,4.26,5.81,10.13,10.71,11.22,18.53,1,7.41.83,14.41-5.78,19.43-9.39,7.14-18.71,14.39-28.39,21.12-6.85,4.77-15,6.07-23.22,6.63-4.59.31-8.58-1.34-10.51-5.38-4.07-8.51-7.92-17.17-11.15-26a122.09,122.09,0,0,1-6.41-23.06C333.53,625.2,333.64,615.81,333.22,608.57Z" fill="#fb6c48"/><path d="M1333.35,522.71c-1.84,7.57-3.44,15.2-5.59,22.68-2.72,9.42-5.87,18.73-8.9,28.06-2.67,8.21-15.32,15.49-26.09,15.12-9.86-.34-12.93-3-16.57-12.55-6.73-17.54-14.16-34.82-20.71-52.43a141.57,141.57,0,0,1-6.36-24.37c-1-5.35,2.31-9.72,7.08-12.12,8-4,16.23-7.62,24.38-11.35,4.38-2,8.88-3.76,13.2-5.89a22.35,22.35,0,0,1,16.88-1.44c4.95,1.4,7.93,4.25,9.41,8.62,4.1,12.11,8,24.31,11.68,36.55.85,2.81.73,5.92,1.06,8.89Z" fill="#fb6c48"/><path d="M1016.27,690.06c16.8-.74,20.26,2.53,18.48,17.71a87.93,87.93,0,0,1-5.47,21.12c-4.06,10.52-8.88,20.76-13.73,31-3.6,7.58-10.3,10.88-18.37,10.51-11.26-.52-21.39-4.29-29.79-12.2-9.08-8.55-18.67-16.59-27.3-25.55-3.76-3.9-6.32-9.33-8.29-14.49-2.15-5.64,1.44-12.7,7.35-14.59a180.92,180.92,0,0,1,23.11-5.6c14.71-2.63,29.5-4.84,44.28-7.09C1010.3,690.27,1014.15,690.22,1016.27,690.06Z" fill="#fb6c48"/><path d="M1128.55,644.4c-7.56.67-13.86-2.27-17.54-8.46-4-6.63-3.05-13.76.76-20.76,3.48-6.4,6.13-13.26,9-20,5.21-12.22,10.15-24.56,15.52-36.71,4.14-9.37,17.93-10.86,23.22-2.16,5.15,8.46,9.13,17.65,13.36,26.65,4,8.41,7,17.28,11.45,25.43,6.83,12.61,2.25,27.61-14.7,31-.81.16-1.64.3-2.46.4Z" fill="#fb6c48"/><path d="M948.51,472.57c-2,16.27-6.31,32.49-17.43,46.15a14.15,14.15,0,0,1-22.19,0q-11-13.23-21.89-26.54c-7.17-8.78-4.52-22.79,5.62-27.52,13.51-6.3,27.49-11,42.8-9.94,10.06.66,11.75,2,12.73,12C948.32,468.39,948.36,470.05,948.51,472.57Z" fill="#fb6c48"/><path d="M569.6,247.59c-2.66,0-5.33-.08-8,0-4.84.19-9.47-.07-12-5.15-2.6-5.24-3.21-11.13,0-15.73,4.64-6.6,10.34-12.55,16.1-18.25,3.52-3.49,13.44-3.22,16.74.51a176.11,176.11,0,0,1,16,20.75c1.36,2.1.65,6.77-.84,9.21-2.6,4.27-6,8.3-12.15,8.13-5.3-.15-10.62.49-15.93.78Z" fill="#fb6c48"/></svg>