<svg xmlns="http://www.w3.org/2000/svg" viewBox="0 0 685.71 126.32"><title>logo</title><g id="Layer_2" data-name="Layer 2"><g id="Layer_1-2" data-name="Layer 1"><path d="M91.46,21a8.39,8.39,0,0,1-1.95,5.36,6.33,6.33,0,0,1-5.36,2.6,9.12,9.12,0,0,1-4.39-1.14A43.56,43.56,0,0,0,58,22.12a42.47,42.47,0,0,0-21.53,5.36,37.36,37.36,0,0,0-14.54,15,46.07,46.07,0,0,0-5.2,22.18q0,13.49,5.36,23.23a36.53,36.53,0,0,0,14.78,14.86A43.52,43.52,0,0,0,58,107.9,41.5,41.5,0,0,0,79.76,102a9.31,9.31,0,0,1,4.22-1,6.79,6.79,0,0,1,5.69,2.76,8.18,8.18,0,0,1,1.95,5.2,6.83,6.83,0,0,1-1.06,3.66,7.53,7.53,0,0,1-2.84,2.68,60.79,60.79,0,0,1-14.21,5.69A59.84,59.84,0,0,1,58,123.17a61.17,61.17,0,0,1-29-7A52.82,52.82,0,0,1,7.88,95.88Q0,82.56,0,64.68A58.76,58.76,0,0,1,7.55,35,54.78,54.78,0,0,1,28.35,14.24,58.75,58.75,0,0,1,58,6.69a59.18,59.18,0,0,1,29.57,7.8A6.93,6.93,0,0,1,91.46,21Z"/><path d="M349.43,10a7.26,7.26,0,0,1,2.27,5.44v98.28a7.64,7.64,0,0,1-8,7.8,8.07,8.07,0,0,1-5.85-2.19,7.44,7.44,0,0,1-2.27-5.6V38.53L304.11,86.29a9.57,9.57,0,0,1-2.84,2.44,5.84,5.84,0,0,1-3.49.81,5.53,5.53,0,0,1-3.33-.81,9.54,9.54,0,0,1-2.84-2.44L259.92,37.07v76.68a7.93,7.93,0,0,1-2,5.6,7.06,7.06,0,0,1-5.44,2.19,6.86,6.86,0,0,1-5.28-2.19,7.92,7.92,0,0,1-2-5.6V15.46A7.6,7.6,0,0,1,247.41,10a7.58,7.58,0,0,1,5.69-2.36,8.17,8.17,0,0,1,3.82,1,8.29,8.29,0,0,1,3,2.6l38.5,58.32,39-58.32a7.78,7.78,0,0,1,6.5-3.57A8.3,8.3,0,0,1,349.43,10Z"/><path d="M458.52,69.64q5.77,7.07,5.77,18.44,0,18-10.48,25.75t-25.59,7.72H386.47a7.77,7.77,0,0,1-7.8-7.8V15.62a7.77,7.77,0,0,1,7.8-7.8h41.75q14.78,0,22.5,7.31t7.72,21.12a26,26,0,0,1-3.74,13.89,24,24,0,0,1-10.88,9.34A32.1,32.1,0,0,1,458.52,69.64Zm-21-42.56q-4.14-4-11.62-4h-30.7V54.77h31a16.05,16.05,0,0,0,11-4.31q4.39-4.14,4.39-11.78T437.56,27.08ZM442.35,102q5.36-4.63,5.36-13.89,0-18-20.47-18h-32V106.6h32.82Q437,106.6,442.35,102Z"/><path d="M559.24,15.62A46.13,46.13,0,0,1,575,36.34a76.31,76.31,0,0,1,5.12,28.35A77.51,77.51,0,0,1,575,93.6,44.84,44.84,0,0,1,559.32,114q-10.56,7.55-26.32,7.55H490.76a3.33,3.33,0,0,1-3.25-3.25V11.07a3.12,3.12,0,0,1,1-2.27,3.11,3.11,0,0,1,2.27-1H533Q548.6,7.83,559.24,15.62Zm3.66,85.53q10.39-13.89,10.4-36.47a69,69,0,0,0-4.47-25.26A40.12,40.12,0,0,0,555,21.15q-9.34-6.82-23.64-6.82h-37V115h37Q552.49,115,562.89,101.16Z"/><path d="M679.45,71.51q6.25,7.47,6.25,19.33,0,14.78-9.34,22.74t-23.8,8H607.73a3.33,3.33,0,0,1-3.25-3.25V11.07a3.12,3.12,0,0,1,1-2.27,3.11,3.11,0,0,1,2.27-1h43.7q13,0,20.79,7.47T680,35.44a30.84,30.84,0,0,1-4.55,16.49A23.27,23.27,0,0,1,662.8,62.08,27.59,27.59,0,0,1,679.45,71.51ZM667.27,20q-5.93-5.68-16.65-5.69H611.3V60h39.31q10.07-.16,16.33-6.58t6.25-18.11Q673.2,25.7,667.27,20ZM671.41,109q7.47-6.09,7.47-18.11t-7.47-18.11q-7.47-6.09-19.66-6.09H611.3V115h40.45Q663.94,115,671.41,109Z"/><path d="M167.55,126.32l-54.7-31.58V31.58L167.55,0l54.7,31.58V94.74Zm-39.7-40.24L167.55,109l39.7-22.92V40.24l-39.7-22.92-39.7,22.92Z"/></g></g></svg>