<svg xmlns="http://www.w3.org/2000/svg" viewBox="0 0 168 168"><title>q</title><path d="M155.84,127.56a84,84,0,1,0-28.28,28.28l1.05,1.05,9.13,9.13,5.44-.88c1.89-.37,3.68-.64,5.68-1.12l5.87-1.31,3.1-.82,1.55-.41L161,161l.48-1.62.41-1.55.82-3.1,1.31-5.87c.48-2,.75-3.79,1.12-5.68l.88-5.44-9.12-9.12ZM40,84a44,44,0,1,1,85.85,13.57l-5.46-5.46-4.56-4.56-2.28-2.28-.57-.57a1.51,1.51,0,0,1-.47-.67,5.12,5.12,0,0,0-.29-.85.82.82,0,0,0-.8-.34c-1.76.24-3.58.54-5.39.83l-2.81.53-1.41.26-1.46.32c-1,.22-1.93.41-2.93.65l-3,.74L91.25,87l-1.58.44L88,88l-.53,1.67L87,91.25l-.88,3.16-.74,3c-.24,1-.43,2-.65,2.93l-.32,1.46-.26,1.41L83.66,106c-.29,1.81-.59,3.64-.83,5.39a.82.82,0,0,0,.34.8,5.13,5.13,0,0,0,.85.29,1.51,1.51,0,0,1,.67.47l.57.57,2.28,2.28,4.56,4.56,5.46,5.46A44,44,0,0,1,40,84Z" fill="#fff"/></svg>