<svg xmlns="http://www.w3.org/2000/svg" viewBox="0 0 213.97 214.48"><defs><style>.cls-1{fill:#9b9b9b;}.cls-2{fill:#b4b4b4;}.cls-3{fill:#727272;}</style></defs><title>bw_mini_logo</title><g id="Layer_2" data-name="Layer 2"><g id="Layer_1-2" data-name="Layer 1"><path class="cls-1" d="M38.32,104.45a87.42,87.42,0,0,1,174.19,14c.34-1.93.64-3.88.86-5.85a92.91,92.91,0,1,0-155,58.09A87.2,87.2,0,0,1,38.32,104.45Z"/><path class="cls-2" d="M123.67,33.75A78,78,0,0,0,76.31,173.62l.41-7-2.36-4.71a44,44,0,0,1,.42-45.12c14.29-24.08,37.73-31.49,51.61-34.4S173,70.1,173,70.1c-8.81,5-15.28,38.72-15.28,38.72s-3.67,19.75-16.33,36-32.64,19.43-32.64,19.43l-20,2.83c2-43.78,28-61.64,28-61.64C86.62,125.61,82.79,163,82.52,177.91A78,78,0,1,0,123.67,33.75Z"/><path class="cls-3" d="M109.92,202.72a100.9,100.9,0,0,1,16.2-201q-3.34-.6-6.76-1a107.23,107.23,0,1,0,67,178.87A100.61,100.61,0,0,1,109.92,202.72Z"/></g></g></svg>